<svg width="212" height="34" viewBox="0 0 212 34" fill="none" xmlns="http://www.w3.org/2000/svg">
<path d="M22.1328 23.9766C22.1328 25.1953 21.8906 26.3906 21.4062 27.5625C20.9375 28.7344 20.1875 29.7812 19.1562 30.7031C18.125 31.625 16.8047 32.3672 15.1953 32.9297C13.5859 33.4922 11.6562 33.7734 9.40625 33.7734C8.09375 33.7734 6.91406 33.6797 5.86719 33.4922C4.83594 33.3047 3.94531 33.1016 3.19531 32.8828C2.33594 32.6172 1.5625 32.3203 0.875 31.9922V23.4844H3.89844L4.53125 28.9219C4.5625 29.1094 4.65625 29.3125 4.8125 29.5312C4.98438 29.75 5.15625 29.8984 5.32812 29.9766L5.72656 30.1875C5.96094 30.2969 6.28125 30.4219 6.6875 30.5625C7.09375 30.6875 7.58594 30.8047 8.16406 30.9141C8.75781 31.0234 9.42969 31.0781 10.1797 31.0781C11.1953 31.0781 12.1328 30.9531 12.9922 30.7031C13.8672 30.4375 14.6172 30.0625 15.2422 29.5781C15.8672 29.0938 16.3516 28.5 16.6953 27.7969C17.0547 27.0938 17.2344 26.2969 17.2344 25.4062C17.2344 24.4375 16.9531 23.5938 16.3906 22.875C15.8438 22.1406 15.1484 21.4922 14.3047 20.9297C13.4766 20.3516 12.5703 19.8359 11.5859 19.3828C10.6016 18.9297 9.67188 18.4922 8.79688 18.0703C7.8125 17.6016 6.86719 17.1172 5.96094 16.6172C5.07031 16.1172 4.28125 15.5391 3.59375 14.8828C2.92188 14.2266 2.38281 13.4609 1.97656 12.5859C1.58594 11.6953 1.39062 10.6406 1.39062 9.42188C1.39062 8 1.67188 6.71094 2.23438 5.55469C2.79688 4.39844 3.57031 3.41406 4.55469 2.60156C5.55469 1.77344 6.72656 1.14063 8.07031 0.703125C9.42969 0.25 10.8984 0.0234375 12.4766 0.0234375C13.3359 0.0234375 14.1406 0.0703125 14.8906 0.164062C15.6406 0.257812 16.3438 0.382812 17 0.539062C17.6719 0.679688 18.2969 0.84375 18.875 1.03125C19.4531 1.20312 20 1.36719 20.5156 1.52344L20.9375 1.66406V9.14062H18.1953L17.4688 4.54688C17.4375 4.32813 17.3359 4.17188 17.1641 4.07812C17.0078 3.96875 16.8594 3.84375 16.7188 3.70312C16.6562 3.65625 16.5312 3.57813 16.3438 3.46875C16.1562 3.34375 15.8906 3.21875 15.5469 3.09375C15.2188 2.96875 14.8047 2.85938 14.3047 2.76562C13.8047 2.67188 13.2188 2.625 12.5469 2.625C11.5781 2.625 10.7109 2.76562 9.94531 3.04688C9.17969 3.32812 8.53125 3.72656 8 4.24219C7.46875 4.74219 7.05469 5.33594 6.75781 6.02344C6.47656 6.71094 6.33594 7.46094 6.33594 8.27344C6.33594 9.00781 6.47656 9.67969 6.75781 10.2891C7.05469 10.8828 7.48438 11.4375 8.04688 11.9531C8.625 12.4531 9.32812 12.9219 10.1562 13.3594C10.9844 13.7969 11.9375 14.2188 13.0156 14.625C14.4688 15.1719 15.7578 15.7422 16.8828 16.3359C18.0234 16.9297 18.9766 17.5938 19.7422 18.3281C20.5234 19.0625 21.1172 19.8906 21.5234 20.8125C21.9297 21.7188 22.1328 22.7734 22.1328 23.9766ZM54.125 3.04688C53.7812 3.07812 53.5234 3.20313 53.3516 3.42188C53.1953 3.64062 53.1172 3.86719 53.1172 4.10156V22.3359C53.1172 24.3047 52.8516 26.0078 52.3203 27.4453C51.7891 28.8828 51 30.0703 49.9531 31.0078C48.9219 31.9453 47.6328 32.6406 46.0859 33.0938C44.5547 33.5469 42.7891 33.7734 40.7891 33.7734C36.8203 33.7734 33.875 32.8125 31.9531 30.8906C30.0312 28.9688 29.0703 26.1172 29.0703 22.3359V4.10156C29.0703 3.86719 28.9844 3.64062 28.8125 3.42188C28.6562 3.20313 28.4062 3.07812 28.0625 3.04688L25.5078 2.85938V0.796875H37.7188V2.85938L34.9766 3.04688C34.6328 3.07812 34.375 3.20313 34.2031 3.42188C34.0469 3.64062 33.9688 3.86719 33.9688 4.10156V21.0938C33.9688 22.5 34.0781 23.7891 34.2969 24.9609C34.5156 26.1172 34.9219 27.1094 35.5156 27.9375C36.1094 28.7656 36.9297 29.4141 37.9766 29.8828C39.0391 30.3359 40.4062 30.5625 42.0781 30.5625C43.7344 30.5625 45.0938 30.3203 46.1562 29.8359C47.2188 29.3516 48.0547 28.6875 48.6641 27.8438C49.2734 26.9844 49.6953 25.9766 49.9297 24.8203C50.1641 23.6641 50.2812 22.4219 50.2812 21.0938V4.10156C50.2812 3.86719 50.1875 3.64062 50 3.42188C49.8281 3.20313 49.5703 3.07812 49.2266 3.04688L46.4844 2.85938V0.796875H56.9141V2.85938L54.125 3.04688ZM89.3516 33.1406C89.2422 33.1562 89.0859 33.1953 88.8828 33.2578C88.6797 33.3203 88.4375 33.3906 88.1562 33.4688C87.875 33.5469 87.5625 33.6172 87.2188 33.6797C86.8906 33.7422 86.5469 33.7734 86.1875 33.7734C84.75 33.7734 83.5859 33.5547 82.6953 33.1172C81.8047 32.6953 81.0781 32.1328 80.5156 31.4297C79.9688 30.7109 79.5391 29.8984 79.2266 28.9922C78.9141 28.0859 78.625 27.1641 78.3594 26.2266C78.0938 25.2734 77.7969 24.3438 77.4688 23.4375C77.1562 22.5312 76.7109 21.7266 76.1328 21.0234C75.5547 20.3047 74.8047 19.7344 73.8828 19.3125C72.9609 18.875 71.7656 18.6562 70.2969 18.6562C70.0469 18.6562 69.7969 18.6641 69.5469 18.6797C69.2969 18.6797 69.0703 18.6875 68.8672 18.7031C68.6797 18.7188 68.5156 18.7344 68.375 18.75C68.2344 18.75 68.1562 18.75 68.1406 18.75V29.6953C68.1406 29.9297 68.2188 30.1562 68.375 30.375C68.5469 30.5938 68.8047 30.7188 69.1484 30.75L71.6797 30.9375V33H59.75V30.9375L62.2344 30.75C62.5781 30.7188 62.8359 30.5938 63.0078 30.375C63.1953 30.1562 63.2891 29.9297 63.2891 29.6953V4.10156C63.2891 3.86719 63.1953 3.64062 63.0078 3.42188C62.8359 3.20313 62.5781 3.07812 62.2344 3.04688L59.75 2.85938V0.796875H72.2656C74.0938 0.796875 75.7344 0.945312 77.1875 1.24219C78.6406 1.53906 79.875 2.02344 80.8906 2.69531C81.9062 3.36719 82.6797 4.25 83.2109 5.34375C83.7578 6.42188 84.0312 7.75 84.0312 9.32812C84.0312 10.5938 83.8125 11.6797 83.375 12.5859C82.9375 13.4922 82.3516 14.2578 81.6172 14.8828C80.8984 15.5078 80.0625 16.0156 79.1094 16.4062C78.1562 16.7969 77.1719 17.1094 76.1562 17.3438C77.4531 17.6562 78.4922 18.0938 79.2734 18.6562C80.0547 19.2031 80.6719 19.8281 81.125 20.5312C81.5781 21.2344 81.9141 21.9844 82.1328 22.7812C82.3516 23.5625 82.5469 24.3438 82.7188 25.125C82.8906 25.8906 83.0859 26.625 83.3047 27.3281C83.5234 28.0312 83.8594 28.6562 84.3125 29.2031C84.7812 29.75 85.4062 30.1875 86.1875 30.5156C86.9844 30.8281 88.0391 30.9844 89.3516 30.9844V33.1406ZM78.8047 9.53906C78.8047 8.50781 78.6484 7.60156 78.3359 6.82031C78.0234 6.02344 77.5234 5.35156 76.8359 4.80469C76.1641 4.25781 75.2891 3.84375 74.2109 3.5625C73.1484 3.28125 71.8594 3.14062 70.3438 3.14062H68.1406V16.2891C68.1719 16.2891 68.2812 16.2969 68.4688 16.3125C68.6562 16.3125 68.8672 16.3125 69.1016 16.3125C69.3516 16.3125 69.6016 16.3203 69.8516 16.3359C70.1172 16.3359 70.3438 16.3359 70.5312 16.3359C71.8594 16.3359 73.0391 16.2266 74.0703 16.0078C75.1016 15.7734 75.9688 15.3906 76.6719 14.8594C77.375 14.3281 77.9062 13.6328 78.2656 12.7734C78.625 11.8984 78.8047 10.8203 78.8047 9.53906ZM111.078 8.41406L110.398 4.00781C110.352 3.77344 110.258 3.57031 110.117 3.39844C109.977 3.22656 109.797 3.14062 109.578 3.14062H99.3594V15.6328H106.695C106.914 15.6328 107.102 15.5312 107.258 15.3281C107.43 15.125 107.531 14.9375 107.562 14.7656L108.008 11.3906H110.398V22.1953H108.008L107.562 18.8438C107.531 18.6719 107.43 18.4844 107.258 18.2812C107.086 18.0781 106.898 17.9766 106.695 17.9766H99.3594V29.6953C99.3594 29.9297 99.4375 30.1562 99.5938 30.375C99.7656 30.5938 100.023 30.7188 100.367 30.75L103.578 30.9375V33H90.9688V30.9375L93.5 30.75C93.8438 30.7188 94.0938 30.5938 94.25 30.375C94.4219 30.1562 94.5078 29.9297 94.5078 29.6953V4.10156C94.5078 3.86719 94.4219 3.64062 94.25 3.42188C94.0938 3.20313 93.8438 3.07812 93.5 3.04688L90.5703 2.85938V0.796875H113.914V8.41406H111.078ZM146.492 33.1406C146.383 33.1562 146.227 33.1953 146.023 33.2578C145.82 33.3203 145.578 33.3906 145.297 33.4688C145.016 33.5469 144.703 33.6172 144.359 33.6797C144.031 33.7422 143.688 33.7734 143.328 33.7734C141.891 33.7734 140.727 33.5547 139.836 33.1172C138.945 32.6953 138.219 32.1328 137.656 31.4297C137.109 30.7109 136.68 29.8984 136.367 28.9922C136.055 28.0859 135.766 27.1641 135.5 26.2266C135.234 25.2734 134.938 24.3438 134.609 23.4375C134.297 22.5312 133.852 21.7266 133.273 21.0234C132.695 20.3047 131.945 19.7344 131.023 19.3125C130.102 18.875 128.906 18.6562 127.438 18.6562C127.188 18.6562 126.938 18.6641 126.688 18.6797C126.438 18.6797 126.211 18.6875 126.008 18.7031C125.82 18.7188 125.656 18.7344 125.516 18.75C125.375 18.75 125.297 18.75 125.281 18.75V29.6953C125.281 29.9297 125.359 30.1562 125.516 30.375C125.688 30.5938 125.945 30.7188 126.289 30.75L128.82 30.9375V33H116.891V30.9375L119.375 30.75C119.719 30.7188 119.977 30.5938 120.148 30.375C120.336 30.1562 120.43 29.9297 120.43 29.6953V4.10156C120.43 3.86719 120.336 3.64062 120.148 3.42188C119.977 3.20313 119.719 3.07812 119.375 3.04688L116.891 2.85938V0.796875H129.406C131.234 0.796875 132.875 0.945312 134.328 1.24219C135.781 1.53906 137.016 2.02344 138.031 2.69531C139.047 3.36719 139.82 4.25 140.352 5.34375C140.898 6.42188 141.172 7.75 141.172 9.32812C141.172 10.5938 140.953 11.6797 140.516 12.5859C140.078 13.4922 139.492 14.2578 138.758 14.8828C138.039 15.5078 137.203 16.0156 136.25 16.4062C135.297 16.7969 134.312 17.1094 133.297 17.3438C134.594 17.6562 135.633 18.0938 136.414 18.6562C137.195 19.2031 137.812 19.8281 138.266 20.5312C138.719 21.2344 139.055 21.9844 139.273 22.7812C139.492 23.5625 139.688 24.3438 139.859 25.125C140.031 25.8906 140.227 26.625 140.445 27.3281C140.664 28.0312 141 28.6562 141.453 29.2031C141.922 29.75 142.547 30.1875 143.328 30.5156C144.125 30.8281 145.18 30.9844 146.492 30.9844V33.1406ZM135.945 9.53906C135.945 8.50781 135.789 7.60156 135.477 6.82031C135.164 6.02344 134.664 5.35156 133.977 4.80469C133.305 4.25781 132.43 3.84375 131.352 3.5625C130.289 3.28125 129 3.14062 127.484 3.14062H125.281V16.2891C125.312 16.2891 125.422 16.2969 125.609 16.3125C125.797 16.3125 126.008 16.3125 126.242 16.3125C126.492 16.3125 126.742 16.3203 126.992 16.3359C127.258 16.3359 127.484 16.3359 127.672 16.3359C129 16.3359 130.18 16.2266 131.211 16.0078C132.242 15.7734 133.109 15.3906 133.812 14.8594C134.516 14.3281 135.047 13.6328 135.406 12.7734C135.766 11.8984 135.945 10.8203 135.945 9.53906ZM167.211 33V30.9375L169.977 30.7031C170.102 30.7031 170.219 30.625 170.328 30.4688C170.438 30.2969 170.492 30.1406 170.492 30C170.492 29.9375 170.484 29.8984 170.469 29.8828L167.164 21.0938H156.078L152.891 29.7422C152.875 29.7734 152.867 29.8203 152.867 29.8828C152.867 30.0703 152.945 30.2578 153.102 30.4453C153.273 30.6172 153.43 30.7031 153.57 30.7031L156.406 30.9375V33H146.75V30.9375L149.539 30.3516L160.719 0.0234375H164.328L175.461 29.6484C175.57 29.9766 175.672 30.1953 175.766 30.3047C175.875 30.4141 176.109 30.5 176.469 30.5625L178.625 30.9375V33H167.211ZM161.586 6.21094L156.922 18.7969H166.297L161.586 6.21094ZM208.578 19.7578C208.234 19.7891 207.977 19.9062 207.805 20.1094C207.648 20.2969 207.57 20.5156 207.57 20.7656V31.8516C206.602 32.2109 205.57 32.5312 204.477 32.8125C203.539 33.0625 202.461 33.2812 201.242 33.4688C200.039 33.6719 198.789 33.7734 197.492 33.7734C195.711 33.7734 194.055 33.5625 192.523 33.1406C191.008 32.7188 189.625 32.125 188.375 31.3594C187.141 30.5938 186.047 29.6875 185.094 28.6406C184.141 27.5781 183.336 26.4219 182.68 25.1719C182.039 23.9219 181.555 22.5938 181.227 21.1875C180.898 19.7656 180.734 18.3125 180.734 16.8281C180.734 14.3125 181.133 12.0234 181.93 9.96094C182.727 7.88281 183.875 6.10938 185.375 4.64062C186.875 3.17187 188.695 2.03906 190.836 1.24219C192.992 0.429687 195.414 0.0234375 198.102 0.0234375C198.914 0.0234375 199.695 0.0703125 200.445 0.164062C201.211 0.242187 201.945 0.351562 202.648 0.492188C203.352 0.617187 204.039 0.765625 204.711 0.9375L206.727 1.45312L207.523 1.66406V9.42188H204.641L203.867 5.10938C203.82 4.82812 203.703 4.59375 203.516 4.40625C203.328 4.20312 203.125 4.05469 202.906 3.96094C202.844 3.94531 202.75 3.90625 202.625 3.84375C202.375 3.73437 202.086 3.61719 201.758 3.49219C201.43 3.36719 201.062 3.25 200.656 3.14062C200.266 3.01563 199.836 2.91406 199.367 2.83594C198.914 2.75781 198.43 2.71875 197.914 2.71875C196.18 2.71875 194.594 3.02344 193.156 3.63281C191.719 4.24219 190.484 5.13281 189.453 6.30469C188.422 7.47656 187.617 8.92969 187.039 10.6641C186.477 12.3828 186.195 14.3594 186.195 16.5938C186.195 18.8906 186.484 20.9375 187.062 22.7344C187.641 24.5312 188.461 26.0469 189.523 27.2812C190.602 28.5156 191.898 29.4609 193.414 30.1172C194.93 30.7578 196.625 31.0781 198.5 31.0781C199.031 31.0781 199.539 31.0391 200.023 30.9609C200.508 30.8828 200.938 30.8047 201.312 30.7266C201.688 30.6328 202 30.5469 202.25 30.4688C202.5 30.3906 202.656 30.3516 202.719 30.3516V20.7656C202.719 20.5156 202.633 20.2969 202.461 20.1094C202.305 19.9062 202.055 19.7891 201.711 19.7578L198.5 19.5234V17.4375H211.016V19.5234L208.578 19.7578Z" fill="#44403C"/>
</svg>
