<svg width="208" height="34" viewBox="0 0 208 34" fill="none" xmlns="http://www.w3.org/2000/svg">
<path d="M24.9219 10.4766C24.9219 12.2422 24.5938 13.7812 23.9375 15.0938C23.2969 16.3906 22.4141 17.4766 21.2891 18.3516C20.1797 19.2266 18.8672 19.8828 17.3516 20.3203C15.8516 20.7422 14.2422 20.9531 12.5234 20.9531H12.3828C12.0703 20.9531 11.7266 20.9453 11.3516 20.9297C10.9922 20.9141 10.6406 20.8984 10.2969 20.8828C9.96875 20.8516 9.67969 20.8281 9.42969 20.8125C9.19531 20.7969 9.04688 20.7812 8.98438 20.7656V29.6953C8.98438 29.9297 9.0625 30.1562 9.21875 30.375C9.39062 30.5938 9.64844 30.7188 9.99219 30.75L13.1562 30.9375V33H0.546875V30.9375L3.07812 30.75C3.42188 30.7188 3.67969 30.5938 3.85156 30.375C4.03906 30.1562 4.13281 29.9297 4.13281 29.6953V4.10156C4.13281 3.86719 4.03906 3.64062 3.85156 3.42188C3.67969 3.20313 3.42188 3.07812 3.07812 3.04688L0.195312 2.85938V0.796875H11.6797C13.9453 0.796875 15.9062 0.96875 17.5625 1.3125C19.2344 1.65625 20.6094 2.21094 21.6875 2.97656C22.7812 3.74219 23.5938 4.74219 24.125 5.97656C24.6562 7.19531 24.9219 8.69531 24.9219 10.4766ZM19.9297 10.5469C19.9297 9.375 19.7734 8.33594 19.4609 7.42969C19.1484 6.50781 18.6484 5.73438 17.9609 5.10938C17.2891 4.46875 16.4141 3.98438 15.3359 3.65625C14.2578 3.3125 12.9531 3.14062 11.4219 3.14062C11.2031 3.14062 10.9531 3.14844 10.6719 3.16406C10.3906 3.16406 10.125 3.16406 9.875 3.16406C9.59375 3.17969 9.29688 3.1875 8.98438 3.1875V18.3047C9.01562 18.3047 9.13281 18.3203 9.33594 18.3516C9.53906 18.3672 9.77344 18.3984 10.0391 18.4453C10.3047 18.4766 10.5859 18.5078 10.8828 18.5391C11.1797 18.5547 11.4453 18.5625 11.6797 18.5625H11.8203C13.0547 18.5625 14.1719 18.4062 15.1719 18.0938C16.1719 17.7656 17.0234 17.2734 17.7266 16.6172C18.4297 15.9609 18.9688 15.1328 19.3438 14.1328C19.7344 13.1172 19.9297 11.9219 19.9297 10.5469ZM28.3438 33V30.9375L30.8281 30.75C31.1719 30.7188 31.4297 30.5938 31.6016 30.375C31.7891 30.1562 31.8828 29.9297 31.8828 29.6953V4.10156C31.8828 3.86719 31.7891 3.64062 31.6016 3.42188C31.4297 3.20313 31.1719 3.07812 30.8281 3.04688L28.3438 2.85938V0.796875H51.6641V7.94531H48.7812L48.0547 4.00781C48.0234 3.77344 47.9219 3.5625 47.75 3.375C47.5938 3.1875 47.4062 3.09375 47.1875 3.09375H36.7812V15.0469H43.9766C44.1953 15.0469 44.3906 14.9531 44.5625 14.7656C44.75 14.5781 44.8438 14.3984 44.8438 14.2266L45.3359 10.9219H47.7734V21.6328H45.3359L44.8438 18.3047C44.8438 18.1328 44.75 17.9453 44.5625 17.7422C44.375 17.5391 44.1797 17.4375 43.9766 17.4375H36.7812V30.6562H48.9219C49.125 30.6562 49.3125 30.5469 49.4844 30.3281C49.6562 30.1094 49.7578 29.9141 49.7891 29.7422L50.6562 24.9844H53.2344V33H28.3438ZM85.9297 33.1406C85.8203 33.1562 85.6641 33.1953 85.4609 33.2578C85.2578 33.3203 85.0156 33.3906 84.7344 33.4688C84.4531 33.5469 84.1406 33.6172 83.7969 33.6797C83.4688 33.7422 83.125 33.7734 82.7656 33.7734C81.3281 33.7734 80.1641 33.5547 79.2734 33.1172C78.3828 32.6953 77.6562 32.1328 77.0938 31.4297C76.5469 30.7109 76.1172 29.8984 75.8047 28.9922C75.4922 28.0859 75.2031 27.1641 74.9375 26.2266C74.6719 25.2734 74.375 24.3438 74.0469 23.4375C73.7344 22.5312 73.2891 21.7266 72.7109 21.0234C72.1328 20.3047 71.3828 19.7344 70.4609 19.3125C69.5391 18.875 68.3438 18.6562 66.875 18.6562C66.625 18.6562 66.375 18.6641 66.125 18.6797C65.875 18.6797 65.6484 18.6875 65.4453 18.7031C65.2578 18.7188 65.0938 18.7344 64.9531 18.75C64.8125 18.75 64.7344 18.75 64.7188 18.75V29.6953C64.7188 29.9297 64.7969 30.1562 64.9531 30.375C65.125 30.5938 65.3828 30.7188 65.7266 30.75L68.2578 30.9375V33H56.3281V30.9375L58.8125 30.75C59.1562 30.7188 59.4141 30.5938 59.5859 30.375C59.7734 30.1562 59.8672 29.9297 59.8672 29.6953V4.10156C59.8672 3.86719 59.7734 3.64062 59.5859 3.42188C59.4141 3.20313 59.1562 3.07812 58.8125 3.04688L56.3281 2.85938V0.796875H68.8438C70.6719 0.796875 72.3125 0.945312 73.7656 1.24219C75.2188 1.53906 76.4531 2.02344 77.4688 2.69531C78.4844 3.36719 79.2578 4.25 79.7891 5.34375C80.3359 6.42188 80.6094 7.75 80.6094 9.32812C80.6094 10.5938 80.3906 11.6797 79.9531 12.5859C79.5156 13.4922 78.9297 14.2578 78.1953 14.8828C77.4766 15.5078 76.6406 16.0156 75.6875 16.4062C74.7344 16.7969 73.75 17.1094 72.7344 17.3438C74.0312 17.6562 75.0703 18.0938 75.8516 18.6562C76.6328 19.2031 77.25 19.8281 77.7031 20.5312C78.1562 21.2344 78.4922 21.9844 78.7109 22.7812C78.9297 23.5625 79.125 24.3438 79.2969 25.125C79.4688 25.8906 79.6641 26.625 79.8828 27.3281C80.1016 28.0312 80.4375 28.6562 80.8906 29.2031C81.3594 29.75 81.9844 30.1875 82.7656 30.5156C83.5625 30.8281 84.6172 30.9844 85.9297 30.9844V33.1406ZM75.3828 9.53906C75.3828 8.50781 75.2266 7.60156 74.9141 6.82031C74.6016 6.02344 74.1016 5.35156 73.4141 4.80469C72.7422 4.25781 71.8672 3.84375 70.7891 3.5625C69.7266 3.28125 68.4375 3.14062 66.9219 3.14062H64.7188V16.2891C64.75 16.2891 64.8594 16.2969 65.0469 16.3125C65.2344 16.3125 65.4453 16.3125 65.6797 16.3125C65.9297 16.3125 66.1797 16.3203 66.4297 16.3359C66.6953 16.3359 66.9219 16.3359 67.1094 16.3359C68.4375 16.3359 69.6172 16.2266 70.6484 16.0078C71.6797 15.7734 72.5469 15.3906 73.25 14.8594C73.9531 14.3281 74.4844 13.6328 74.8438 12.7734C75.2031 11.8984 75.3828 10.8203 75.3828 9.53906Z" fill="#44403C"/>
<path d="M107.656 8.41406L106.977 4.00781C106.93 3.77344 106.836 3.57031 106.695 3.39844C106.555 3.22656 106.375 3.14062 106.156 3.14062H95.9375V15.6328H103.273C103.492 15.6328 103.68 15.5312 103.836 15.3281C104.008 15.125 104.109 14.9375 104.141 14.7656L104.586 11.3906H106.977V22.1953H104.586L104.141 18.8438C104.109 18.6719 104.008 18.4844 103.836 18.2812C103.664 18.0781 103.477 17.9766 103.273 17.9766H95.9375V29.6953C95.9375 29.9297 96.0156 30.1562 96.1719 30.375C96.3438 30.5938 96.6016 30.7188 96.9453 30.75L100.156 30.9375V33H87.5469V30.9375L90.0781 30.75C90.4219 30.7188 90.6719 30.5938 90.8281 30.375C91 30.1562 91.0859 29.9297 91.0859 29.6953V4.10156C91.0859 3.86719 91 3.64062 90.8281 3.42188C90.6719 3.20313 90.4219 3.07812 90.0781 3.04688L87.1484 2.85938V0.796875H110.492V8.41406H107.656ZM143.07 33.1406C142.961 33.1562 142.805 33.1953 142.602 33.2578C142.398 33.3203 142.156 33.3906 141.875 33.4688C141.594 33.5469 141.281 33.6172 140.938 33.6797C140.609 33.7422 140.266 33.7734 139.906 33.7734C138.469 33.7734 137.305 33.5547 136.414 33.1172C135.523 32.6953 134.797 32.1328 134.234 31.4297C133.688 30.7109 133.258 29.8984 132.945 28.9922C132.633 28.0859 132.344 27.1641 132.078 26.2266C131.812 25.2734 131.516 24.3438 131.188 23.4375C130.875 22.5312 130.43 21.7266 129.852 21.0234C129.273 20.3047 128.523 19.7344 127.602 19.3125C126.68 18.875 125.484 18.6562 124.016 18.6562C123.766 18.6562 123.516 18.6641 123.266 18.6797C123.016 18.6797 122.789 18.6875 122.586 18.7031C122.398 18.7188 122.234 18.7344 122.094 18.75C121.953 18.75 121.875 18.75 121.859 18.75V29.6953C121.859 29.9297 121.938 30.1562 122.094 30.375C122.266 30.5938 122.523 30.7188 122.867 30.75L125.398 30.9375V33H113.469V30.9375L115.953 30.75C116.297 30.7188 116.555 30.5938 116.727 30.375C116.914 30.1562 117.008 29.9297 117.008 29.6953V4.10156C117.008 3.86719 116.914 3.64062 116.727 3.42188C116.555 3.20313 116.297 3.07812 115.953 3.04688L113.469 2.85938V0.796875H125.984C127.812 0.796875 129.453 0.945312 130.906 1.24219C132.359 1.53906 133.594 2.02344 134.609 2.69531C135.625 3.36719 136.398 4.25 136.93 5.34375C137.477 6.42188 137.75 7.75 137.75 9.32812C137.75 10.5938 137.531 11.6797 137.094 12.5859C136.656 13.4922 136.07 14.2578 135.336 14.8828C134.617 15.5078 133.781 16.0156 132.828 16.4062C131.875 16.7969 130.891 17.1094 129.875 17.3438C131.172 17.6562 132.211 18.0938 132.992 18.6562C133.773 19.2031 134.391 19.8281 134.844 20.5312C135.297 21.2344 135.633 21.9844 135.852 22.7812C136.07 23.5625 136.266 24.3438 136.438 25.125C136.609 25.8906 136.805 26.625 137.023 27.3281C137.242 28.0312 137.578 28.6562 138.031 29.2031C138.5 29.75 139.125 30.1875 139.906 30.5156C140.703 30.8281 141.758 30.9844 143.07 30.9844V33.1406ZM132.523 9.53906C132.523 8.50781 132.367 7.60156 132.055 6.82031C131.742 6.02344 131.242 5.35156 130.555 4.80469C129.883 4.25781 129.008 3.84375 127.93 3.5625C126.867 3.28125 125.578 3.14062 124.062 3.14062H121.859V16.2891C121.891 16.2891 122 16.2969 122.188 16.3125C122.375 16.3125 122.586 16.3125 122.82 16.3125C123.07 16.3125 123.32 16.3203 123.57 16.3359C123.836 16.3359 124.062 16.3359 124.25 16.3359C125.578 16.3359 126.758 16.2266 127.789 16.0078C128.82 15.7734 129.688 15.3906 130.391 14.8594C131.094 14.3281 131.625 13.6328 131.984 12.7734C132.344 11.8984 132.523 10.8203 132.523 9.53906ZM163.789 33V30.9375L166.555 30.7031C166.68 30.7031 166.797 30.625 166.906 30.4688C167.016 30.2969 167.07 30.1406 167.07 30C167.07 29.9375 167.062 29.8984 167.047 29.8828L163.742 21.0938H152.656L149.469 29.7422C149.453 29.7734 149.445 29.8203 149.445 29.8828C149.445 30.0703 149.523 30.2578 149.68 30.4453C149.852 30.6172 150.008 30.7031 150.148 30.7031L152.984 30.9375V33H143.328V30.9375L146.117 30.3516L157.297 0.0234375H160.906L172.039 29.6484C172.148 29.9766 172.25 30.1953 172.344 30.3047C172.453 30.4141 172.688 30.5 173.047 30.5625L175.203 30.9375V33H163.789ZM158.164 6.21094L153.5 18.7969H162.875L158.164 6.21094ZM205.156 19.7578C204.812 19.7891 204.555 19.9062 204.383 20.1094C204.227 20.2969 204.148 20.5156 204.148 20.7656V31.8516C203.18 32.2109 202.148 32.5312 201.055 32.8125C200.117 33.0625 199.039 33.2812 197.82 33.4688C196.617 33.6719 195.367 33.7734 194.07 33.7734C192.289 33.7734 190.633 33.5625 189.102 33.1406C187.586 32.7188 186.203 32.125 184.953 31.3594C183.719 30.5938 182.625 29.6875 181.672 28.6406C180.719 27.5781 179.914 26.4219 179.258 25.1719C178.617 23.9219 178.133 22.5938 177.805 21.1875C177.477 19.7656 177.312 18.3125 177.312 16.8281C177.312 14.3125 177.711 12.0234 178.508 9.96094C179.305 7.88281 180.453 6.10938 181.953 4.64062C183.453 3.17187 185.273 2.03906 187.414 1.24219C189.57 0.429687 191.992 0.0234375 194.68 0.0234375C195.492 0.0234375 196.273 0.0703125 197.023 0.164062C197.789 0.242187 198.523 0.351562 199.227 0.492188C199.93 0.617187 200.617 0.765625 201.289 0.9375L203.305 1.45312L204.102 1.66406V9.42188H201.219L200.445 5.10938C200.398 4.82812 200.281 4.59375 200.094 4.40625C199.906 4.20312 199.703 4.05469 199.484 3.96094C199.422 3.94531 199.328 3.90625 199.203 3.84375C198.953 3.73437 198.664 3.61719 198.336 3.49219C198.008 3.36719 197.641 3.25 197.234 3.14062C196.844 3.01563 196.414 2.91406 195.945 2.83594C195.492 2.75781 195.008 2.71875 194.492 2.71875C192.758 2.71875 191.172 3.02344 189.734 3.63281C188.297 4.24219 187.062 5.13281 186.031 6.30469C185 7.47656 184.195 8.92969 183.617 10.6641C183.055 12.3828 182.773 14.3594 182.773 16.5938C182.773 18.8906 183.062 20.9375 183.641 22.7344C184.219 24.5312 185.039 26.0469 186.102 27.2812C187.18 28.5156 188.477 29.4609 189.992 30.1172C191.508 30.7578 193.203 31.0781 195.078 31.0781C195.609 31.0781 196.117 31.0391 196.602 30.9609C197.086 30.8828 197.516 30.8047 197.891 30.7266C198.266 30.6328 198.578 30.5469 198.828 30.4688C199.078 30.3906 199.234 30.3516 199.297 30.3516V20.7656C199.297 20.5156 199.211 20.2969 199.039 20.1094C198.883 19.9062 198.633 19.7891 198.289 19.7578L195.078 19.5234V17.4375H207.594V19.5234L205.156 19.7578Z" fill="#3D4345"/>
</svg>
